Format                           : AVI
Format/Info                      : Audio Video Interleave
File size                        : 891 MiB
Duration                         : 2h 23mn
Overall bit rate                 : 871 Kbps

Video
ID                               : 0
Format                           : AVC
Format/Info                      : Advanced Video Codec
Format profile                   : High@L2.1
Format settings, CABAC           : Yes
Format settings, ReFrames        : 3 frames
Codec ID                         : H264
Duration                         : 2h 23mn
Bit rate                         : 668 Kbps
Width                            : 640 pixels
Height                           : 272 pixels
Display aspect ratio             : 2.35:1
Frame rate                       : 23.976 fps
Resolution                       : 8 bits
Colorimetry                      : 4:2:0
Scan type                        : Progressive
Bits/(Pixel*Frame)               : 0.160
Stream size                      : 684 MiB (77%)
Writing library                  : x264 core 68

Audio
ID                               : 1
Format                           : AC-3
Format/Info                      : Audio Coding 3
Format_Settings_ModeExtension    : CM (complete main)
Codec ID                         : 2000
Duration                         : 2h 23mn
Bit rate mode                    : Constant
Bit rate                         : 192 Kbps
Channel(s)                       : 6 channels
Channel positions                : Front: L C R, Side: L R, LFE
Sampling rate                    : 48.0 KHz
Resolution                       : 16 bits
Stream size                      : 196 MiB (22%)
Alignment                        : Aligned on interleaves
Interleave, duration             : 32 ms (0.77 video frame)